<svg xmlns="http://www.w3.org/2000/svg" version="1.1" xmlns:xlink="http://www.w3.org/1999/xlink" xmlns:svgjs="http://svgjs.com/svgjs" width="1000" height="1000"><rect width="1000" height="1000" rx="200" ry="200" fill="#19d784"></rect><g transform="matrix(6.510416666666667,0,0,6.510416666666667,119.59277737736704,99.97244959831238)"><svg xmlns="http://www.w3.org/2000/svg" version="1.1" xmlns:xlink="http://www.w3.org/1999/xlink" xmlns:svgjs="http://svgjs.com/svgjs" width="116.8" height="122.88"><svg version="1.1" id="Layer_1" xmlns="http://www.w3.org/2000/svg" xmlns:xlink="http://www.w3.org/1999/xlink" x="0px" y="0px" viewBox="0 0 116.8 122.88" style="enable-background:new 0 0 116.8 122.88" xml:space="preserve"><style type="text/css">
	.st0{fill-rule:evenodd;clip-rule:evenodd;fill:#BC5050;}
	.st1{fill:#FFED33;}
	.st2{fill-rule:evenodd;clip-rule:evenodd;fill:#FAC900;}
	.st3{fill-rule:evenodd;clip-rule:evenodd;fill:#FF8985;}
	.st4{fill-rule:evenodd;clip-rule:evenodd;fill:#D49000;}
</style><g><path class="st3" d="M73.36,41.66l0.24,0.06c0.34,0.11,0.67,0.18,0.96,0.2c0.32,0.02,0.63,0,0.91-0.06 c0.82-0.16,2.03-0.92,3.34-1.74c1.46-0.91,3.03-1.88,4.7-2.44c1.12-0.38,5.04-0.64,8.76-0.71c4.24-0.09,8.45,0.27,8.88,1.12 c0.33,0.66,0.54,1.5,0.47,2.44c-0.06,0.75-0.29,1.56-0.78,2.38c-1.11,1.87-3.12,3.26-5.02,4.56c-1.93,1.32-3.7,2.54-3.4,3.45 c0.02,0.08,0.21,0.24,0.5,0.47c0.42,0.33,1.03,0.72,1.66,1.11c2.56,1.56,4.55,3.21,6.24,5.16c1.67,1.93,3.06,4.13,4.42,6.84 c0.4,0.79,0.78,1.6,1.14,2.43c0.39,0.89,0.76,1.8,1.11,2.71l0.08,0.29c0.21,1.25,0.49,2.2,0.86,2.78c0.18,0.29,0.35,0.43,0.51,0.43 l0.05-0.01h2c0.32,0,0.58-0.02,0.81-0.03c1.9-0.13,2.97-0.2,4.08,2.65c0.77,1.98,1.03,4.73,0.91,7.48 c-0.12,2.96-0.67,5.97-1.45,8.03c-0.29,1.36-0.9,2.44-1.86,3.24c-0.96,0.79-2.21,1.26-3.78,1.39l-0.12,0.01h-2.22 c-0.97,0-1.82-0.04-2.44-0.06c-0.6-0.02-0.72-0.1-0.8-0.07c-0.11,0.06,0.03,0.07-0.13,0.28c-0.4,0.55-1.04,1.43-2.38,2.81 c-0.96,0.99-2.07,2.08-3.14,3.09c-0.99,0.93-1.98,1.82-2.79,2.5l-0.5,0.42c-0.92,0.76-1.37,1.13-1.39,1.25 c-0.04,0.22,0.24,0.88,0.78,2.19c0.23,0.55,0.37,0.88,0.42,1.01c0.54,1.33,1.08,2.62,1.58,3.75c0.83,1.91,1.74,3.93,2.03,4.59 l0.03,0.07c0.67,1.71,0.52,3.01-0.42,3.94c-0.8,0.79-2.06,1.09-3.77,0.96h-8.01c-1.12,0.08-2.19-0.16-3.18-0.73 c-0.95-0.54-1.82-1.36-2.59-2.45l-0.08-0.12c-0.29-0.51-0.6-1.19-0.92-1.91c-0.79-1.75-1.76-3.92-2.55-3.61 c-5.44,2.12-10.75,3.38-16.5,3.57c-5.68,0.19-11.77-0.67-18.79-2.79c-2.01-0.29-2.42,0.57-3.07,1.92 c-0.18,0.38-0.37,0.79-0.64,1.29l0,0c-0.16,0.33-0.22,0.47-0.29,0.59c-0.93,1.99-1.82,3.91-4.61,4.47l-0.3,0.03l-10.35-0.08h-0.1 c-0.64-0.05-1.2-0.19-1.69-0.46c-0.57-0.29-1.01-0.72-1.32-1.29c-0.92-1.68-0.3-2.96,0.32-4.24h-0.01c0.1-0.22,0.22-0.45,0.25-0.5 l0.01-0.01l3.64-7.96l0.07-0.13c0.38-0.66,0.52-1.2,0.44-1.62c-0.09-0.41-0.39-0.81-0.89-1.2l0,0c-0.72-0.51-1.43-1.04-2.1-1.59 c-0.7-0.56-1.37-1.14-2.02-1.73c-2.14-1.96-4.12-4.26-5.81-6.79c-1.63-2.42-2.99-5.07-3.98-7.82c-0.77-2.16-1.31-4.37-1.58-6.6 c-0.06-0.51-0.1-1.04-0.13-1.55c-3.36-1.62-5.72-4.5-6.86-8.3c-1.15-3.87-1.01-8.68,0.7-14.04l2.91,0.93 c-1.52,4.74-1.66,8.93-0.68,12.23c0.73,2.43,2.09,4.38,3.98,5.68c0.04-0.46,0.1-0.92,0.16-1.38c0.72-4.98,2.65-9.62,5.41-13.73 C26.58,40.83,51.67,38.21,73.36,41.66L73.36,41.66z"></path><path class="st0" d="M89.93,67.69c1.37,0,2.6,0.55,3.5,1.44s1.44,2.13,1.44,3.5c0,1.37-0.55,2.6-1.44,3.5s-2.13,1.44-3.5,1.44 c-1.36,0-2.6-0.55-3.49-1.44c-0.93-0.93-1.45-2.18-1.45-3.49c0-1.37,0.55-2.6,1.45-3.5C87.36,68.21,88.61,67.69,89.93,67.69 L89.93,67.69z M37.38,55.23c-1.36,0.47-2.85-0.26-3.32-1.62c-0.47-1.36,0.26-2.85,1.62-3.32c5.85-2.03,11.78-2.97,17.77-2.94 c5.97,0.03,11.97,1.04,18,2.9c1.38,0.42,2.16,1.89,1.73,3.27s-1.89,2.16-3.27,1.73c-5.56-1.72-11.06-2.65-16.48-2.68 C48.02,52.55,42.66,53.4,37.38,55.23L37.38,55.23z"></path><path class="st1" d="M50.8,0c6.93,0,13.21,2.81,17.76,7.36c4.54,4.54,7.35,10.82,7.35,17.76c0,6.93-2.81,13.21-7.35,17.76 c-4.54,4.54-10.82,7.35-17.76,7.35c-6.93,0-13.21-2.81-17.76-7.35c-4.54-4.54-7.35-10.82-7.35-17.76c0-6.93,2.81-13.21,7.35-17.76 C37.59,2.81,43.87,0,50.8,0L50.8,0z M51.55,5.07c11.48,0,20.79,9.31,20.79,20.79c0,11.48-9.31,20.79-20.79,20.79 c-11.48,0-20.79-9.31-20.79-20.79C30.76,14.38,40.07,5.07,51.55,5.07L51.55,5.07z"></path><path class="st2" d="M51.55,5.07c11.48,0,20.79,9.31,20.79,20.79s-9.31,20.79-20.79,20.79c-11.48,0-20.79-9.31-20.79-20.79 S40.07,5.07,51.55,5.07L51.55,5.07z"></path><path class="st4" d="M50.8,3.57c11.9,0,21.54,9.64,21.54,21.54c0,0.12,0,0.25,0,0.37c-0.2-11.31-9.43-20.41-20.78-20.41 c-11.48,0-20.79,9.31-20.79,20.79c0,11.35,9.1,20.58,20.41,20.78c-0.12,0-0.25,0-0.37,0c-11.9,0-21.54-9.64-21.54-21.54 C29.26,13.22,38.9,3.57,50.8,3.57L50.8,3.57z M59.95,19.24l-5.76,0.93c-0.15-0.38-0.29-0.7-0.42-0.96l5.1-0.8 c-0.34-1.52-1.05-2.73-2.11-3.65c0.29,0.16,0.55,0.34,0.8,0.53C58.78,16.24,59.58,17.56,59.95,19.24L59.95,19.24z M52.33,17.79 l-0.07-0.04v3.96c-0.35-0.1-0.71-0.2-1.08-0.3v-4.47C51.72,17.23,52.1,17.52,52.33,17.79L52.33,17.79z M57.98,24.58 c0.21,0.14,0.39,0.28,0.55,0.43c1.39,1.28,2.08,2.88,2.08,4.84c0,1.14-0.25,2.19-0.75,3.15c-0.5,0.96-1.14,1.75-1.91,2.4 c-0.77,0.64-1.6,1.1-2.48,1.39c-0.88,0.29-1.94,0.46-3.21,0.51v2.97h-2.25v-1.26h1.17V36.1c1.27-0.05,2.34-0.22,3.21-0.5 c0.88-0.28,1.7-0.74,2.48-1.37c0.77-0.63,1.41-1.41,1.91-2.35c0.5-0.93,0.75-1.97,0.75-3.08C59.53,27.14,59.01,25.74,57.98,24.58 L57.98,24.58z M48.94,37.18c-1.03-0.14-1.9-0.35-2.6-0.62c-0.94-0.36-1.76-0.86-2.44-1.5c-0.35-0.33-0.66-0.67-0.93-1.02 c0.65,0.56,1.42,1.01,2.29,1.34c0.94,0.35,2.17,0.6,3.69,0.73V37.18L48.94,37.18z M46.9,29.68l0.81-0.1c0.16,0.87,0.36,1.54,0.61,2 c-0.41-0.26-0.72-0.55-0.94-0.85C47.2,30.47,47.04,30.12,46.9,29.68L46.9,29.68z M48.94,27.16c-1.53-0.46-2.64-0.86-3.35-1.21 c-0.62-0.31-1.18-0.75-1.68-1.32c0.2,0.13,0.4,0.25,0.6,0.35c0.87,0.42,2.35,0.92,4.43,1.5V27.16L48.94,27.16z M51.18,12.06h1.08 v0.92c-0.35-0.04-0.71-0.08-1.08-0.1V12.06L51.18,12.06z M48.94,18.21c-0.12,0.09-0.22,0.19-0.3,0.29 c-0.26,0.32-0.39,0.71-0.39,1.15c0,0.37,0.09,0.71,0.26,1c-0.43-0.19-0.74-0.42-0.94-0.67c-0.26-0.33-0.4-0.73-0.4-1.18 c0-0.43,0.13-0.81,0.39-1.13c0.26-0.32,0.72-0.59,1.38-0.8V18.21L48.94,18.21z M53.48,28.68c-0.33-0.19-0.74-0.37-1.22-0.54v3.58 c-0.31,0.15-0.67,0.27-1.08,0.36v-4.96c1,0.35,1.67,0.73,2.01,1.13C53.31,28.4,53.41,28.54,53.48,28.68L53.48,28.68z"></path><path class="st1" d="M58.87,18.4l-5.76,0.91c-0.29-0.73-0.55-1.23-0.78-1.51s-0.61-0.56-1.15-0.85v4.47 c3.13,0.84,5.21,1.72,6.27,2.64c1.39,1.25,2.08,2.83,2.08,4.75c0,1.12-0.25,2.15-0.75,3.08c-0.5,0.94-1.14,1.72-1.91,2.35 c-0.77,0.63-1.6,1.08-2.48,1.37c-0.88,0.29-1.95,0.45-3.21,0.5v2.91h-2.25V36.1c-1.51-0.13-2.74-0.37-3.69-0.73 c-0.94-0.35-1.76-0.84-2.44-1.47c-0.68-0.62-1.21-1.3-1.58-2.02c-0.37-0.72-0.65-1.6-0.83-2.62l6.23-0.72 c0.18,1.01,0.44,1.75,0.75,2.19c0.31,0.45,0.83,0.85,1.56,1.2v-5.46c-2.09-0.57-3.56-1.08-4.43-1.5c-0.87-0.42-1.62-1.1-2.26-2.04 c-0.64-0.93-0.96-2.07-0.96-3.41c0-1.83,0.64-3.37,1.92-4.6c1.29-1.23,3.19-1.92,5.73-2.05v-1.52h2.25v1.52 c2.31,0.14,4.08,0.69,5.3,1.63C57.7,15.46,58.5,16.75,58.87,18.4L58.87,18.4z M48.94,16.87c-0.66,0.22-1.12,0.48-1.38,0.8 c-0.26,0.32-0.39,0.7-0.39,1.13c0,0.45,0.13,0.84,0.4,1.18c0.26,0.34,0.72,0.62,1.38,0.84V16.87L48.94,16.87z M51.18,32.08 c0.88-0.2,1.51-0.52,1.92-0.97c0.41-0.45,0.61-0.95,0.61-1.51c0-0.49-0.17-0.93-0.52-1.34c-0.34-0.41-1.02-0.79-2.01-1.13V32.08 L51.18,32.08z"></path></g></svg></svg></g></svg>